
<svg width="146px" height="199px" viewBox="43 0 146 199" version="1.1" xmlns="http://www.w3.org/2000/svg" xmlns:xlink="http://www.w3.org/1999/xlink">
    <!-- Generator: Sketch 41.2 (35397) - http://www.bohemiancoding.com/sketch -->
    <desc>Created with Sketch.</desc>
    <defs></defs>
    <path d="M139.029353,25.826087 C139.029353,25.826087 136.113647,21.5217391 131.226941,21.5217391 L100.777353,21.5217391 C95.8820588,21.5217391 92.9706471,25.826087 92.9706471,25.826087 L89.0672941,30.1304348 L142.937,30.1304348 L139.029353,25.826087 Z M116,8.60869565 C113.625353,8.60869565 111.705882,10.5370435 111.705882,12.9130435 L120.294118,12.9130435 C120.294118,10.5370435 118.374647,8.60869565 116,8.60869565 L116,8.60869565 Z M163.235294,34.4347826 C163.235294,36.8107826 161.315824,38.7391304 158.941176,38.7391304 L73.0588235,38.7391304 C70.6841765,38.7391304 68.7647059,36.8107826 68.7647059,34.4347826 C68.7647059,32.0587826 70.6841765,30.1304348 73.0588235,30.1304348 C73.0588235,30.1304348 77.8897059,29.5923913 81.6470588,25.826087 L90.2352941,17.2173913 C90.2352941,17.2173913 93.589,12.9130435 98.8235294,12.9130435 L103.117647,12.9130435 C103.117647,5.78073913 108.888941,0 116,0 C123.115353,0 128.882353,5.78073913 128.882353,12.9130435 L133.176471,12.9130435 C138.810353,12.9130435 141.764706,17.2173913 141.764706,17.2173913 L150.352941,25.826087 C154.110294,29.5923913 158.941176,30.1304348 158.941176,30.1304348 C161.315824,30.1304348 163.235294,32.0587826 163.235294,34.4347826 L163.235294,34.4347826 Z M171.823529,198 L60.1764706,198 C50.6907647,198 43,190.290913 43,180.782609 L43,30.1304348 C43,20.6221304 50.6907647,12.9130435 60.1764706,12.9130435 L73.0588235,12.9130435 C75.4334706,12.9130435 77.3529412,14.8413913 77.3529412,17.2173913 C77.3529412,19.5933913 75.4334706,21.5217391 73.0588235,21.5217391 L60.1764706,21.5217391 C55.4357647,21.5217391 51.5882353,25.3784348 51.5882353,30.1304348 L51.5882353,180.782609 C51.5882353,185.534609 55.4357647,189.391304 60.1764706,189.391304 L171.823529,189.391304 C176.564235,189.391304 180.411765,185.534609 180.411765,180.782609 L180.411765,30.1304348 C180.411765,25.3784348 176.564235,21.5217391 171.823529,21.5217391 L158.941176,21.5217391 C156.566529,21.5217391 154.647059,19.5933913 154.647059,17.2173913 C154.647059,14.8413913 156.566529,12.9130435 158.941176,12.9130435 L158.945471,12.9130435 L171.823529,12.9130435 C181.309235,12.9130435 189,20.6221304 189,30.1304348 L189,180.782609 C189,190.290913 181.309235,198 171.823529,198 L171.823529,198 Z" id="Page-1" stroke="none" fill="#000000" fill-rule="evenodd"></path>
</svg>
