
<svg width="139px" height="188px" viewBox="403 10 139 188" version="1.1" xmlns="http://www.w3.org/2000/svg" xmlns:xlink="http://www.w3.org/1999/xlink">
    <!-- Generator: Sketch 41.2 (35397) - http://www.bohemiancoding.com/sketch -->
    <desc>Created with Sketch.</desc>
    <defs></defs>
    <path d="M533.823529,59.0434783 L497.029412,59.0434783 C494.768618,59.0434783 492.941176,57.2125217 492.941176,54.9565217 L492.941176,18.173913 L419.352941,18.173913 C414.839529,18.173913 411.176471,21.8358261 411.176471,26.3478261 L411.176471,181.652174 C411.176471,186.164174 414.839529,189.826087 419.352941,189.826087 L525.647059,189.826087 C530.160471,189.826087 533.823529,186.164174 533.823529,181.652174 L533.823529,59.0434783 Z M501.117647,23.818 L501.117647,50.8695652 L528.177676,50.8695652 L501.117647,23.818 Z M525.647059,198 L419.352941,198 C410.322029,198 403,190.680261 403,181.652174 L403,26.3478261 C403,17.3197391 410.322029,10 419.352941,10 L496.919029,10 L496.947647,10 L497.029412,10 C498.337647,10 499.453735,10.658 500.201882,11.6143478 L540.385147,51.7850435 C541.345882,52.5329565 542,53.6486957 542,54.9565217 L542,55.0423478 L542,55.0627826 L542,181.652174 C542,190.680261 534.677971,198 525.647059,198 L525.647059,198 Z" id="Page-1" stroke="none" fill="#000000" fill-rule="evenodd"></path>
</svg>
